<?xml version="1.0" standalone="no"?>
<!DOCTYPE svg PUBLIC "-//W3C//DTD SVG 20010904//EN"
 "http://www.w3.org/TR/2001/REC-SVG-20010904/DTD/svg10.dtd">
<svg version="1.0" xmlns="http://www.w3.org/2000/svg"
 width="64.000000pt" height="64.000000pt" viewBox="0 0 64.000000 64.000000"
 preserveAspectRatio="xMidYMid meet">

<g transform="translate(0.000000,64.000000) scale(0.100000,-0.100000)"
fill="#000000" stroke="none">
<path d="M120 592 c-20 -16 -24 -30 -27 -98 -4 -75 6 -118 24 -100 4 4 10 47
13 94 l5 87 137 3 137 3 7 -36 c8 -44 36 -65 86 -65 35 0 38 2 38 30 0 19 -11
42 -29 62 l-29 33 -169 3 c-154 3 -171 2 -193 -16z m380 -52 c15 -28 13 -32
-17 -28 -24 2 -29 8 -31 36 -3 31 -2 33 17 22 11 -6 25 -19 31 -30z"/>
<path d="M518 438 c-1 -2 -4 -86 -7 -188 l-6 -185 -102 -3 c-83 -2 -103 -6
-103 -17 0 -12 19 -15 99 -15 148 0 145 -3 149 200 4 163 0 210 -18 210 -6 0
-11 -1 -12 -2z"/>
<path d="M193 375 c-18 -8 -42 -29 -53 -47 -22 -36 -27 -107 -9 -140 9 -17 2
-29 -61 -94 -60 -62 -79 -94 -53 -94 3 0 38 32 78 71 l73 71 31 -16 c40 -21
74 -20 119 3 47 24 72 67 72 123 0 104 -99 166 -197 123z m110 -26 c64 -33 77
-116 28 -171 -25 -28 -36 -33 -76 -33 -40 0 -51 5 -76 33 -23 25 -29 42 -29
75 0 23 6 49 13 57 36 46 95 62 140 39z"/>
</g>
</svg>
